<?xml version="1.0" encoding="UTF-8"?>
<svg xmlns="http://www.w3.org/2000/svg" version="1.1" viewBox="0 0 340.2 99.2">
  <!-- DrainQ-Logo, dunkel + gold (fuer hellen Hintergrund). "CORE"-Zusatz entfernt. -->
  <defs>
    <style>
      .st0 { fill: #fc0; }
      .st1 { fill: #1d1d1b; }
      .st2 { fill: none; }
      .st3 { clip-path: url(#clippath-1); }
    </style>
    <clipPath id="clippath-1"><rect class="st2" x="10.2" y="8.9" width="295.3" height="80.4"/></clipPath>
  </defs>
  <polygon class="st1" points="183.1 70.9 198.1 70.9 197.6 29.2 197.7 29.2 219.1 70.9 239.3 70.9 239.3 9.9 224.4 9.9 224.7 51.3 224.5 51.3 203.9 9.9 183.1 9.9 183.1 70.9"/>
  <g class="st3">
    <path class="st0" d="M276.9,56.2l-.2-1c.6-.1,1.3-.3,1.9-.5l.3.9c-.7.2-1.3.4-2,.5ZM280.9,54.8l-.4-.9c.6-.3,1.2-.6,1.7-1l.6.8c-.6.4-1.2.7-1.8,1.1ZM284.4,52.5l-.7-.8c.5-.4,1-.9,1.4-1.4l.8.7c-.5.5-1,1-1.5,1.5ZM287.1,49.3l-.8-.6c.4-.5.7-1.1,1-1.7l.9.4c-.3.6-.7,1.2-1.1,1.8ZM289,45.6l-.9-.3c.2-.6.4-1.3.5-1.9l1,.2c-.1.7-.3,1.4-.5,2Z"/>
    <path class="st0" d="M288.6,37.5c-.1-.6-.3-1.3-.5-1.9l.9-.3c.2.7.4,1.3.5,2l-1,.2ZM287.3,33.7c-.3-.6-.6-1.2-1-1.7l.8-.6c.4.6.7,1.2,1.1,1.8l-.9.4ZM285.1,30.5c-.4-.5-.9-1-1.4-1.4l.7-.8c.5.5,1,1,1.5,1.5l-.8.7ZM282.1,27.9c-.5-.4-1.1-.7-1.7-1l.4-.9c.6.3,1.2.7,1.8,1.1l-.6.8ZM278.6,26.1c-.6-.2-1.3-.4-1.9-.5l.2-1c.7.1,1.4.3,2,.5l-.3.9Z"/>
    <path class="st0" d="M259,37.5l-1-.2c.1-.7.3-1.4.5-2l.9.3c-.2.6-.4,1.3-.5,1.9ZM260.3,33.7l-.9-.4c.3-.6.7-1.2,1.1-1.8l.8.6c-.4.5-.7,1.1-1,1.7ZM262.4,30.5l-.8-.7c.5-.5,1-1,1.5-1.5l.7.8c-.5.4-1,.9-1.4,1.4ZM265.4,27.9l-.6-.8c.6-.4,1.2-.7,1.8-1.1l.4.9c-.6.3-1.2.6-1.7,1ZM268.9,26.1l-.3-.9c.7-.2,1.3-.4,2-.5l.2,1c-.6.1-1.3.3-1.9.5Z"/>
    <path class="st0" d="M270.6,56.2c-.7-.1-1.4-.3-2-.5l.3-.9c.6.2,1.3.4,1.9.5l-.2,1ZM266.7,54.8c-.6-.3-1.2-.7-1.8-1.1l.6-.8c.5.4,1.1.7,1.7,1l-.4.9ZM263.2,52.5c-.5-.5-1-1-1.5-1.5l.8-.7c.4.5.9,1,1.4,1.4l-.7.8ZM260.4,49.3c-.4-.6-.7-1.2-1.1-1.8l.9-.4c.3.6.6,1.2,1,1.7l-.8.6ZM258.6,45.6c-.2-.7-.4-1.3-.5-2l1-.2c.1.6.3,1.3.5,1.9l-.9.3Z"/>
    <path class="st0" d="M273.8,56.5c-.4,0-.7,0-1,0v-1c.7,0,1.4,0,2,0v1c-.3,0-.6,0-1,0ZM289.8,41.5h-1c0-.4,0-.7,0-1s0-.7,0-1h1c0,.3,0,.6,0,1s0,.7,0,1ZM257.7,41.5c0-.3,0-.7,0-1s0-.7,0-1h1c0,.4,0,.7,0,1s0,.7,0,1h-1ZM274.8,25.4c-.7,0-1.3,0-2,0v-1c.6,0,1.3,0,2,0v1Z"/>
    <path class="st0" d="M305.5,40.5c0-13.6-8.5-25.1-20.5-29.6l20,34.7c.3-1.7.4-3.4.4-5.1"/>
    <path class="st1" d="M273.8,22.1c2,0,3.9.3,5.7.9l-8.1-14.1c-2.9.2-5.6.9-8.2,1.8l6.8,11.9c1.2-.3,2.5-.4,3.8-.4"/>
    <path class="st1" d="M256,36c.8-3.1,2.4-5.9,4.5-8.2l-6.8-11.8c-2.2,1.8-4.1,3.8-5.7,6.1l8,13.9Z"/>
    <path class="st1" d="M263.3,70.4l-20.6-35.7c-.3,1.9-.6,3.8-.6,5.8,0,13.8,8.8,25.5,21.2,29.9"/>
    <path class="st1" d="M273.8,58.9c-1.7,0-3.4-.3-5-.7l8,13.9c2.8-.3,5.6-.9,8.1-1.9l10.6,18.3,9.4-5.4-10.6-18.4c2.1-1.8,4.1-3.9,5.6-6.2l-8.2-14.1c-1.8,8.3-9.1,14.6-18,14.6"/>
    <path class="st1" d="M232.8,89.1h6v-1h-4.8v-4.6h4.4v-1h-4.4v-4.2h4.6v-1h-5.8v11.9ZM223.4,89.1h1.2v-5.6h1c1.1,0,1.6,0,2.3,1.6l1.7,4h1.3l-2-4.6c-.4-.8-.6-1.3-1.5-1.4h0c1.5-.2,2.6-1.2,2.6-2.8,0-2.2-1.4-3.1-3.5-3.1h-3.1v11.9ZM224.6,78.3h1.2c1.6,0,3,.1,3,2.1s-1.6,2.2-3,2.2h-1.2v-4.2ZM218.8,84.9h-5.2l2.6-6.5,2.6,6.5ZM210.8,89.1h1.1l1.3-3.2h6l1.3,3.2h1.2l-4.7-11.9h-1.3l-4.9,11.9ZM211.1,77.2h-1.1l-3,10.5h0l-3-10.5h-1.4l-3,10.5h0l-2.9-10.5h-1.2l3.4,11.9h1.4l3.1-10.5h0l3,10.5h1.4l3.4-11.9ZM189.7,89.1h1.2v-10.9h3.5v-1h-8.2v1h3.5v10.9ZM179.2,89.1h1.2v-5.6h4.3v-1h-4.3v-4.2h4.5v-1h-5.6v11.9ZM171.7,78.1c2.8,0,4,2.6,4,5.1s-1.3,5.1-4,5.1-4-2.6-4-5.1,1.3-5.1,4-5.1M166.5,83.2c0,3.6,1.8,6.1,5.2,6.1s5.2-2.5,5.2-6.1c0-3.2-1.6-6.1-5.2-6.1s-5.3,2.9-5.2,6.1M158.2,88.8c.6.3,1.5.5,2.7.5,1.8,0,3.9-1,3.9-3.4,0-3.5-5.4-3.5-5.4-5.9s1.3-2,2.6-2,1.6.2,2.2.4l.2-1.1c-.8-.3-1.8-.4-2.3-.4-2.1,0-3.8,1.2-3.8,3.1,0,3.1,5.4,3.4,5.4,5.7s-1.2,2.4-2.7,2.4-1.9-.3-2.6-.7v1.2ZM142.4,89.1h1.2v-10.2h0l5.9,10.2h1.6v-11.9h-1.2v10.4h0l-6-10.4h-1.5v11.9ZM134.8,78.1c2.8,0,4,2.6,4,5.1s-1.3,5.1-4,5.1-4-2.6-4-5.1,1.3-5.1,4-5.1M129.6,83.2c0,3.6,1.8,6.1,5.2,6.1s5.2-2.5,5.2-6.1c0-3.2-1.6-6.1-5.2-6.1s-5.3,2.9-5.2,6.1M126.1,89.1h1.2v-11.9h-1.2v11.9ZM119.8,89.1h1.2v-10.9h3.5v-1h-8.2v1h3.5v10.9ZM114.5,77.5c-.6-.3-2-.4-2.7-.4-3.7,0-6,2.5-6,6.1s2.2,6.1,6,6.1,2.1-.1,2.7-.5v-1c-.7.4-1.9.5-2.7.5-3.1,0-4.8-2.1-4.8-5.1s1.7-5.1,4.8-5.1,1.9.1,2.7.5v-1.1ZM98.1,89.1h6v-1h-4.8v-4.6h4.4v-1h-4.4v-4.2h4.6v-1h-5.8v11.9ZM90.9,78.3h1.9c1.5,0,2.3.8,2.3,2.3,0,2.1-1.7,2.3-3.4,2.3h-.8v-4.7ZM89.7,89.1h1.2v-5.1h1.6c2.1,0,3.8-1.2,3.8-3.4s-1.4-3.4-3.7-3.4h-2.9v11.9ZM81,88.8c.6.3,1.5.5,2.7.5,1.8,0,3.9-1,3.9-3.4,0-3.5-5.4-3.5-5.4-5.9s1.3-2,2.6-2,1.6.2,2.2.4l.2-1.1c-.8-.3-1.8-.4-2.3-.4-2.1,0-3.8,1.2-3.8,3.1,0,3.1,5.4,3.4,5.4,5.7s-1.2,2.4-2.7,2.4-1.9-.3-2.6-.7v1.2ZM70,89.1h1.2v-10.2h0l5.9,10.2h1.6v-11.9h-1.2v10.4h0l-6-10.4h-1.5v11.9ZM66,89.1h1.2v-11.9h-1.2v11.9ZM52,89.1h1.2v-5.6h1c1.1,0,1.6,0,2.3,1.6l1.7,4h1.3l-2-4.6c-.4-.8-.6-1.3-1.5-1.4h0c1.5-.2,2.6-1.2,2.6-2.8,0-2.2-1.4-3.1-3.5-3.1h-3.1v11.9ZM53.1,78.3h1.2c1.6,0,3,.1,3,2.1s-1.6,2.2-3,2.2h-1.2v-4.2ZM43.8,89.1h6v-1h-4.8v-4.6h4.4v-1h-4.4v-4.2h4.6v-1h-5.8v11.9ZM42.1,77.2h-1.1l-3,10.5h0l-3-10.5h-1.4l-3,10.5h0l-2.9-10.5h-1.2l3.4,11.9h1.4l3.1-10.5h0l3,10.5h1.4l3.4-11.9ZM19,89.1h6v-1h-4.8v-4.6h4.4v-1h-4.4v-4.2h4.6v-1h-5.8v11.9ZM10.2,88.8c.6.3,1.5.5,2.7.5,1.8,0,3.9-1,3.9-3.4,0-3.5-5.4-3.5-5.4-5.9s1.3-2,2.6-2,1.6.2,2.2.4l.2-1.1c-.8-.3-1.8-.4-2.3-.4-2.1,0-3.8,1.2-3.8,3.1,0,3.1,5.4,3.4,5.4,5.7s-1.2,2.4-2.7,2.4-1.9-.3-2.6-.7v1.2Z"/>
  </g>
  <path class="st1" d="M179.4,9.9h-16.3v44.7l-17.2-44.7h-19.9l-15.7,41.4c-2.1-5.6-3-9.2-7.5-10.4v-.2c7.9-1.8,11.7-7.3,11.7-15.4s-8.8-15.4-19.7-15.4h-29v16.1c-5.2-11.7-17.5-15.4-33.4-15.4H10.3v61h22.2c15.6,0,28.1-4.5,33.4-16.3v15.6h16.3v-24.1h3.4c6,0,8.1,2.6,11.5,13.1l3.5,11h2.4,0s16.5,0,16.5,0l4.8-13h22.9l4.5,13h17.8,0s10,0,10,0V9.9ZM32.8,59.6h-6.3V22.7h6.3c11.9,0,19,6.3,19,18.5s-6.8,18.5-19,18.5ZM86.4,35.3h-4.3v-13.8h4.3c6.2,0,11.9,1,11.9,6.7s-6.6,7.1-11.9,7.1ZM127.9,46.4l7.9-23.9h.2l7.3,23.9h-15.3Z"/>
</svg>
